<?xml version="1.0" standalone="no"?>
<svg xmlns:xlink="http://www.w3.org/1999/xlink" id="wave" style="transform:rotate(0deg); transition: 0.3s" viewBox="0 0 1440 280" version="1.1" xmlns="http://www.w3.org/2000/svg"><defs><linearGradient id="sw-gradient-0" x1="0" x2="0" y1="1" y2="0"><stop stop-color="rgba(40, 16, 78, 1)" offset="0%"/><stop stop-color="rgba(222, 172, 245, 1)" offset="100%"/></linearGradient></defs><path style="transform:translate(0, 0px); opacity:1" fill="url(#sw-gradient-0)" d="M0,196L40,186.7C80,177,160,159,240,168C320,177,400,215,480,224C560,233,640,215,720,196C800,177,880,159,960,154C1040,149,1120,159,1200,144.7C1280,131,1360,93,1440,79.3C1520,65,1600,75,1680,102.7C1760,131,1840,177,1920,172.7C2000,168,2080,112,2160,84C2240,56,2320,56,2400,84C2480,112,2560,168,2640,163.3C2720,159,2800,93,2880,60.7C2960,28,3040,28,3120,46.7C3200,65,3280,103,3360,112C3440,121,3520,103,3600,98C3680,93,3760,103,3840,93.3C3920,84,4000,56,4080,60.7C4160,65,4240,103,4320,102.7C4400,103,4480,65,4560,84C4640,103,4720,177,4800,200.7C4880,224,4960,196,5040,163.3C5120,131,5200,93,5280,74.7C5360,56,5440,56,5520,70C5600,84,5680,112,5720,126L5760,140L5760,280L5720,280C5680,280,5600,280,5520,280C5440,280,5360,280,5280,280C5200,280,5120,280,5040,280C4960,280,4880,280,4800,280C4720,280,4640,280,4560,280C4480,280,4400,280,4320,280C4240,280,4160,280,4080,280C4000,280,3920,280,3840,280C3760,280,3680,280,3600,280C3520,280,3440,280,3360,280C3280,280,3200,280,3120,280C3040,280,2960,280,2880,280C2800,280,2720,280,2640,280C2560,280,2480,280,2400,280C2320,280,2240,280,2160,280C2080,280,2000,280,1920,280C1840,280,1760,280,1680,280C1600,280,1520,280,1440,280C1360,280,1280,280,1200,280C1120,280,1040,280,960,280C880,280,800,280,720,280C640,280,560,280,480,280C400,280,320,280,240,280C160,280,80,280,40,280L0,280Z"/><defs><linearGradient id="sw-gradient-1" x1="0" x2="0" y1="1" y2="0"><stop stop-color="rgba(100, 55, 160, 1)" offset="0%"/><stop stop-color="rgba(255, 1, 79, 1)" offset="100%"/></linearGradient></defs><path style="transform:translate(0, 50px); opacity:0.9" fill="url(#sw-gradient-1)" d="M0,56L40,70C80,84,160,112,240,107.3C320,103,400,65,480,79.3C560,93,640,159,720,172.7C800,187,880,149,960,112C1040,75,1120,37,1200,51.3C1280,65,1360,131,1440,144.7C1520,159,1600,121,1680,107.3C1760,93,1840,103,1920,116.7C2000,131,2080,149,2160,135.3C2240,121,2320,75,2400,65.3C2480,56,2560,84,2640,93.3C2720,103,2800,93,2880,98C2960,103,3040,121,3120,140C3200,159,3280,177,3360,186.7C3440,196,3520,196,3600,186.7C3680,177,3760,159,3840,144.7C3920,131,4000,121,4080,121.3C4160,121,4240,131,4320,135.3C4400,140,4480,140,4560,149.3C4640,159,4720,177,4800,154C4880,131,4960,65,5040,37.3C5120,9,5200,19,5280,32.7C5360,47,5440,65,5520,93.3C5600,121,5680,159,5720,177.3L5760,196L5760,280L5720,280C5680,280,5600,280,5520,280C5440,280,5360,280,5280,280C5200,280,5120,280,5040,280C4960,280,4880,280,4800,280C4720,280,4640,280,4560,280C4480,280,4400,280,4320,280C4240,280,4160,280,4080,280C4000,280,3920,280,3840,280C3760,280,3680,280,3600,280C3520,280,3440,280,3360,280C3280,280,3200,280,3120,280C3040,280,2960,280,2880,280C2800,280,2720,280,2640,280C2560,280,2480,280,2400,280C2320,280,2240,280,2160,280C2080,280,2000,280,1920,280C1840,280,1760,280,1680,280C1600,280,1520,280,1440,280C1360,280,1280,280,1200,280C1120,280,1040,280,960,280C880,280,800,280,720,280C640,280,560,280,480,280C400,280,320,280,240,280C160,280,80,280,40,280L0,280Z"/></svg>